<svg viewBox="0 0 800 1000" fill="none" xmlns="http://www.w3.org/2000/svg">
  <!-- Gradient background -->
  <defs>
    <linearGradient id="bgGradient" x1="0%" y1="0%" x2="100%" y2="100%">
      <stop offset="0%" stop-color="#4F46E5" stop-opacity="0.05" />
      <stop offset="100%" stop-color="#4F46E5" stop-opacity="0.15" />
    </linearGradient>
    <linearGradient id="checkGradient" x1="0%" y1="0%" x2="100%" y2="100%">
      <stop offset="0%" stop-color="#4F46E5" stop-opacity="0.7" />
      <stop offset="100%" stop-color="#818CF8" stop-opacity="0.9" />
    </linearGradient>
  </defs>
  
  <!-- Background -->
  <rect width="800" height="1000" fill="url(#bgGradient)" />
  
  <!-- Abstract shapes -->
  <circle cx="400" cy="500" r="300" fill="#4F46E5" fill-opacity="0.03" />
  <circle cx="400" cy="500" r="200" fill="#4F46E5" fill-opacity="0.03" />
  <circle cx="400" cy="500" r="100" fill="#4F46E5" fill-opacity="0.03" />
  
  <!-- Floating task cards -->
  <!-- Card 1 -->
  <rect x="150" y="200" width="200" height="120" rx="8" fill="white" filter="drop-shadow(0px 4px 6px rgba(0, 0, 0, 0.05))" />
  <rect x="170" y="220" width="120" height="10" rx="2" fill="#4F46E5" opacity="0.2" />
  <rect x="170" y="240" width="160" height="8" rx="2" fill="#CBD5E0" />
  <rect x="170" y="258" width="140" height="8" rx="2" fill="#CBD5E0" />
  <rect x="170" y="276" width="100" height="8" rx="2" fill="#CBD5E0" />
  <circle cx="320" cy="230" r="15" fill="#F0F9FF" stroke="#4F46E5" stroke-width="1.5" />
  <path d="M315 230L318 233L325 226" stroke="#4F46E5" stroke-width="1.5" stroke-linecap="round" stroke-linejoin="round" />
  
  <!-- Card 2 -->
  <rect x="450" y="150" width="220" height="130" rx="8" fill="white" filter="drop-shadow(0px 4px 6px rgba(0, 0, 0, 0.05))" />
  <rect x="470" y="170" width="150" height="10" rx="2" fill="#4F46E5" opacity="0.2" />
  <rect x="470" y="190" width="180" height="8" rx="2" fill="#CBD5E0" />
  <rect x="470" y="208" width="160" height="8" rx="2" fill="#CBD5E0" />
  <rect x="470" y="226" width="120" height="8" rx="2" fill="#CBD5E0" />
  <rect x="470" y="244" width="100" height="8" rx="2" fill="#CBD5E0" />
  <circle cx="630" cy="180" r="15" fill="#F0F9FF" stroke="#4F46E5" stroke-width="1.5" />
  <path d="M625 180L628 183L635 176" stroke="#4F46E5" stroke-width="1.5" stroke-linecap="round" stroke-linejoin="round" />
  
  <!-- Card 3 -->
  <rect x="320" y="350" width="240" height="140" rx="8" fill="white" filter="drop-shadow(0px 4px 6px rgba(0, 0, 0, 0.05))" />
  <rect x="340" y="370" width="130" height="10" rx="2" fill="#4F46E5" opacity="0.2" />
  <rect x="340" y="390" width="200" height="8" rx="2" fill="#CBD5E0" />
  <rect x="340" y="408" width="180" height="8" rx="2" fill="#CBD5E0" />
  <rect x="340" y="426" width="150" height="8" rx="2" fill="#CBD5E0" />
  <rect x="340" y="444" width="120" height="8" rx="2" fill="#CBD5E0" />
  <rect x="340" y="462" width="90" height="8" rx="2" fill="#CBD5E0" />
  
  <!-- Card 4 -->
  <rect x="200" y="550" width="180" height="120" rx="8" fill="white" filter="drop-shadow(0px 4px 6px rgba(0, 0, 0, 0.05))" />
  <rect x="220" y="570" width="110" height="10" rx="2" fill="#4F46E5" opacity="0.2" />
  <rect x="220" y="590" width="140" height="8" rx="2" fill="#CBD5E0" />
  <rect x="220" y="608" width="120" height="8" rx="2" fill="#CBD5E0" />
  <rect x="220" y="626" width="90" height="8" rx="2" fill="#CBD5E0" />
  <circle cx="350" cy="580" r="15" fill="#F0F9FF" stroke="#4F46E5" stroke-width="1.5" />
  <path d="M345 580L348 583L355 576" stroke="#4F46E5" stroke-width="1.5" stroke-linecap="round" stroke-linejoin="round" />
  
  <!-- Card 5 -->
  <rect x="450" y="520" width="200" height="130" rx="8" fill="white" filter="drop-shadow(0px 4px 6px rgba(0, 0, 0, 0.05))" />
  <rect x="470" y="540" width="140" height="10" rx="2" fill="#4F46E5" opacity="0.2" />
  <rect x="470" y="560" width="160" height="8" rx="2" fill="#CBD5E0" />
  <rect x="470" y="578" width="140" height="8" rx="2" fill="#CBD5E0" />
  <rect x="470" y="596" width="120" height="8" rx="2" fill="#CBD5E0" />
  <rect x="470" y="614" width="80" height="8" rx="2" fill="#CBD5E0" />
  <circle cx="620" cy="550" r="15" fill="#F0F9FF" stroke="#4F46E5" stroke-width="1.5" />
  <path d="M615 550L618 553L625 546" stroke="#4F46E5" stroke-width="1.5" stroke-linecap="round" stroke-linejoin="round" />
  
  <!-- Decorative Elements -->
  
  <!-- Large Checkmark -->
  <path d="M300 750L400 850L550 700" stroke="url(#checkGradient)" stroke-width="15" stroke-linecap="round" stroke-linejoin="round" opacity="0.6" />
  
  <!-- Floating circles -->
  <circle cx="150" cy="300" r="20" fill="#4F46E5" opacity="0.1" />
  <circle cx="700" cy="400" r="30" fill="#4F46E5" opacity="0.1" />
  <circle cx="600" cy="750" r="25" fill="#4F46E5" opacity="0.1" />
  <circle cx="200" cy="800" r="15" fill="#4F46E5" opacity="0.1" />
  <circle cx="100" cy="650" r="10" fill="#4F46E5" opacity="0.1" />
  <circle cx="400" cy="900" r="40" fill="#4F46E5" opacity="0.1" />
  <circle cx="750" cy="200" r="25" fill="#4F46E5" opacity="0.1" />
  
  <!-- Small decorative patterns -->
  <path d="M100 400H140" stroke="#4F46E5" stroke-width="3" stroke-linecap="round" opacity="0.4" />
  <path d="M100 415H120" stroke="#4F46E5" stroke-width="3" stroke-linecap="round" opacity="0.3" />
  
  <path d="M700 600H740" stroke="#4F46E5" stroke-width="3" stroke-linecap="round" opacity="0.4" />
  <path d="M700 615H720" stroke="#4F46E5" stroke-width="3" stroke-linecap="round" opacity="0.3" />
  
  <path d="M150 700H190" stroke="#4F46E5" stroke-width="3" stroke-linecap="round" opacity="0.4" />
  <path d="M150 715H170" stroke="#4F46E5" stroke-width="3" stroke-linecap="round" opacity="0.3" />
</svg>